# xmcd
#
# Track frame offsets: 
#        182
#        26282
#        62705
#        80015
#        103500
#        140815
#        181765
#
# Disc length: 2750 seconds
#
# Revision: 1
# Processed by: cddbd v1.5.2PL0 Copyright (c) Steve Scherf et al.
# Submitted via: ExactAudioCopy v1.0b6
#
DISCID=560abc07
DTITLE=Drum Club - Bug (JP CD)
DYEAR=1996
DGENRE=Techno
TTITLE0=Bug Stomp
TTITLE1=Bug Phunk
TTITLE2=Bug (Steve Bicknell Remix One)
TTITLE3=Bug (Steve Bicknell Remix Two)
TTITLE4=Floating World (Floating Mix)
TTITLE5=Floating World (Worldly Mix)
TTITLE6=Bonus Beats (Electro Dub)
EXTD=YEAR: 1996
EXTT0=
EXTT1=
EXTT2=
EXTT3=
EXTT4=
EXTT5=
EXTT6=
PLAYORDER=
